<svg width="11" height="11" viewBox="0 0 11 11" fill="none" xmlns="http://www.w3.org/2000/svg">
<path d="M8.83057 3.10286L1.4139 10.5195C1.26112 10.6723 1.06668 10.7487 0.830566 10.7487C0.594455 10.7487 0.400011 10.6723 0.247233 10.5195C0.094455 10.3668 0.0180664 10.1723 0.0180664 9.9362C0.0180664 9.70009 0.094455 9.50564 0.247233 9.35286L7.6639 1.9362H1.33057C1.09446 1.9362 0.896677 1.8562 0.737233 1.6962C0.577789 1.5362 0.497788 1.33842 0.497233 1.10286C0.497233 0.866754 0.577233 0.668976 0.737233 0.509531C0.897233 0.350087 1.09501 0.270087 1.33057 0.269531H9.6639C9.90001 0.269531 10.0981 0.349531 10.2581 0.509531C10.4181 0.669531 10.4978 0.867309 10.4972 1.10286V9.4362C10.4972 9.67231 10.4172 9.87036 10.2572 10.0304C10.0972 10.1904 9.89946 10.2701 9.6639 10.2695C9.42779 10.2695 9.23001 10.1895 9.07057 10.0295C8.91112 9.86953 8.83112 9.67175 8.83057 9.4362V3.10286Z" fill="currentColor"/>
</svg>
