<svg width="144" height="91" viewBox="0 0 144 91" fill="none" xmlns="http://www.w3.org/2000/svg">
<path d="M26.2273 70.7783V70.7783C27.0307 70.7927 27.8241 70.5988 28.5291 70.2157C29.1883 69.8543 29.7345 69.3194 30.1082 68.6699L30.1082 68.6699C30.5025 67.9848 30.7037 67.2068 30.6908 66.4176L30.6907 66.4096L30.6908 66.4096C30.7031 65.6359 30.5039 64.8734 30.1144 64.2034L26.2273 70.7783ZM26.2273 70.7783L26.2234 70.7783M26.2273 70.7783L26.2234 70.7783M26.2234 70.7783L20.104 70.7644V62.1315H26.2283V62.1315M26.2234 70.7783L26.2283 62.1315M26.2283 62.1315L26.2327 62.1314M26.2283 62.1315L26.2327 62.1314M26.2327 62.1314C27.0351 62.1173 27.8279 62.3063 28.5366 62.6808M26.2327 62.1314L28.5366 62.6808M28.5366 62.6808C29.1935 63.034 29.7394 63.5609 30.1142 64.2031L28.5366 62.6808ZM18.3292 72.667L18.3372 72.673L18.3457 72.6782C18.6252 72.8518 18.952 72.934 19.2805 72.9135H26.2281C27.416 72.932 28.5889 72.6464 29.6341 72.084L29.6347 72.0837C30.6262 71.5471 31.4472 70.7452 32.005 69.7685L32.006 69.7668C32.5812 68.7411 32.8739 67.5823 32.8543 66.4078C32.854 64.966 32.4664 63.7381 31.6789 62.7401L31.6789 62.7401L31.6773 62.7381C30.9979 61.8948 30.1003 61.2581 29.087 60.8927C29.7854 60.4897 30.3855 59.9327 30.8391 59.2612C31.4206 58.4018 31.7253 57.3865 31.7128 56.3504C31.7259 55.3559 31.4473 54.3792 30.9112 53.54L30.9108 53.5393C30.3774 52.7098 29.6314 52.0371 28.7498 51.5902C27.8412 51.1216 26.8315 50.8809 25.8083 50.889H19.0236C18.7397 50.8802 18.4633 50.9821 18.2533 51.1734L18.2532 51.1732L18.246 51.1803C18.1408 51.2841 18.0589 51.409 18.0057 51.5467C17.9533 51.6821 17.9298 51.827 17.9368 51.972V71.839C17.9287 71.9973 17.9597 72.1551 18.027 72.2987C18.0955 72.4446 18.1994 72.5712 18.3292 72.667ZM29.5565 56.3557L29.5565 56.3567C29.561 57.4534 29.2129 58.3225 28.5238 58.9882C27.833 59.6554 26.9352 59.9962 25.8076 59.9962C25.8076 59.9962 25.8075 59.9962 25.8074 59.9962L20.1112 59.9824V53.0476H25.8219C26.9743 53.0476 27.8751 53.3478 28.5492 53.9255C29.214 54.4952 29.5565 55.2938 29.5565 56.3557Z" fill="white" stroke="white" stroke-width="0.5"/>
<path d="M70.8343 72.0269L70.8345 72.0268L70.8335 72.0154C70.8091 71.7504 70.7202 71.4954 70.5746 71.2725L65.9853 63.9731C67.2554 63.567 68.3741 62.7847 69.1893 61.727C70.0688 60.5871 70.5054 59.2324 70.5058 57.6752C70.5277 56.4403 70.2091 55.2231 69.5847 54.1558L69.584 54.1546C68.9744 53.1256 68.0845 52.2896 67.0174 51.7431L67.017 51.7429C65.8754 51.1608 64.6073 50.8676 63.3249 50.889H58.039C57.7544 50.8798 57.4771 50.9817 57.2666 51.1735L57.2665 51.1733L57.2594 51.1804C57.1542 51.2842 57.0723 51.4091 57.019 51.5468C56.9667 51.6822 56.9432 51.8271 56.9502 51.9721V71.8476C56.9462 71.99 56.9713 72.1317 57.024 72.2642C57.0772 72.3979 57.1574 72.5193 57.2594 72.6209C57.3615 72.7225 57.4834 72.802 57.6175 72.8548C57.7481 72.9062 57.8877 72.9312 58.0281 72.9282C58.1724 72.9346 58.3165 72.9111 58.4512 72.859C58.5894 72.8056 58.7145 72.7233 58.8182 72.6177L58.8183 72.6177L58.8221 72.6137C58.9189 72.5105 58.9944 72.3893 59.0441 72.2569C59.0933 72.1261 59.1164 71.9869 59.112 71.8472V64.3742H63.6856L68.709 72.3603C68.8036 72.521 68.9314 72.6598 69.084 72.7673L69.0925 72.7733L69.1013 72.7785C69.2728 72.8793 69.4695 72.9293 69.6682 72.9229C69.9522 72.9379 70.2343 72.8679 70.4783 72.7217L70.4846 72.7179L70.4906 72.7138C70.6017 72.638 70.6916 72.5352 70.7518 72.415C70.812 72.2947 70.8404 72.1611 70.8343 72.0269ZM63.3276 62.221L63.3276 62.221H63.3234H59.112V53.0495H63.3234V53.0495L63.3276 53.0494C64.2273 53.0344 65.117 53.2379 65.9196 53.6423C66.6515 54.0169 67.2643 54.5861 67.69 55.2864C68.1218 56.0064 68.3444 56.8314 68.3332 57.6696L68.3331 57.6696L68.3332 57.6762C68.344 58.5031 68.1215 59.3165 67.6908 60.0241C67.2649 60.7166 66.6521 61.2763 65.9219 61.6395C65.1162 62.0366 64.2266 62.236 63.3276 62.221Z" fill="white" stroke="white" stroke-width="0.5"/>
<path d="M74.122 51.174L74.1219 51.1739L74.1156 51.18C74.0103 51.2837 73.928 51.4084 73.8744 51.5461C73.8216 51.6816 73.7977 51.8265 73.8043 51.9717V71.8423C73.8004 71.9848 73.8257 72.1266 73.8787 72.259C73.932 72.3921 74.0121 72.5128 74.1139 72.6138C74.2151 72.7163 74.3364 72.7967 74.4703 72.8502C74.6033 72.9033 74.7459 72.9285 74.889 72.9244H79.874H79.8742C81.9999 72.9232 83.9089 72.4551 85.5948 71.5147C87.2536 70.5977 88.6211 69.2366 89.5423 67.5856C90.4903 65.909 90.9616 64.0091 90.9616 61.8924C90.9616 59.7757 90.4903 57.8803 89.542 56.213C88.6181 54.5679 87.251 53.2123 85.5947 52.2987C83.9088 51.3571 81.9998 50.889 79.874 50.889H74.8892C74.6061 50.8805 74.3307 50.9827 74.122 51.174ZM79.8785 70.9293L79.8785 70.9293L79.8738 70.9293L75.9697 70.9327V52.8734H79.874V52.8734L79.8784 52.8733C81.493 52.845 83.0856 53.2483 84.49 54.0411C85.8185 54.803 86.9102 55.9141 87.6457 57.2523C88.4235 58.6722 88.8185 60.2681 88.7926 61.8848L88.7925 61.8848L88.7926 61.8925C88.8169 63.5133 88.4219 65.1132 87.6454 66.5384C86.913 67.8823 85.821 68.9985 84.4901 69.7634C83.0855 70.5555 81.493 70.9582 79.8785 70.9293Z" fill="white" stroke="white" stroke-width="0.5"/>
<path d="M110.632 71.8489L110.631 71.8523C110.624 72.1343 110.509 72.4026 110.308 72.6017C110.109 72.8001 109.841 72.9147 109.56 72.9225M110.632 71.8489L91.7862 71.846M110.632 71.8489C110.633 71.687 110.597 71.5271 110.526 71.3819L102.104 51.6214L102.104 51.6206C102.007 51.3972 101.874 51.2118 101.695 51.0826C101.514 50.9528 101.304 50.8916 101.075 50.8908C100.841 50.8833 100.612 50.9531 100.422 51.0895C100.236 51.2238 100.098 51.4152 100.031 51.6345M110.632 71.8489L100.031 51.6345M109.56 72.9225C109.338 72.9322 109.119 72.8703 108.935 72.7459C108.753 72.6226 108.615 72.4445 108.542 72.2375L106.558 67.519H95.61L93.6284 72.2348C93.5592 72.4457 93.4216 72.6276 93.2373 72.7521C93.054 72.8759 92.835 72.9358 92.6144 72.923C92.4694 72.9284 92.3248 72.9029 92.1904 72.8481C92.051 72.7913 91.926 72.7045 91.8242 72.5937L91.8242 72.5937C91.6369 72.3898 91.5339 72.1227 91.5362 71.8461M109.56 72.9225C109.56 72.9224 109.561 72.9224 109.562 72.9223L109.551 72.6726L109.557 72.9225C109.558 72.9225 109.559 72.9225 109.56 72.9225ZM91.5362 71.8461C91.5362 71.8452 91.5362 71.8442 91.5362 71.8433L91.7862 71.846M91.5362 71.8461C91.5362 71.847 91.5362 71.8479 91.5362 71.8489L91.7862 71.846M91.5362 71.8461C91.5347 71.6852 91.571 71.5263 91.6421 71.382M91.7862 71.846C91.7847 71.7213 91.8132 71.5981 91.8693 71.4866M91.6421 71.382L91.6392 71.3888L91.8693 71.4866M91.6421 71.382L100.031 51.6345M91.6421 71.382C91.6433 71.3794 91.6446 71.3769 91.6459 71.3743L91.8693 71.4866M91.8693 71.4866L100.031 51.6345M96.457 65.5293L101.066 54.5146L105.704 65.5293H96.457Z" fill="white" stroke="white" stroke-width="0.5"/>
<path d="M112.31 73.0354L111.884 72.6151C111.781 72.5139 111.701 72.3927 111.647 72.259C111.594 72.1266 111.569 71.9848 111.573 71.8423V51.9691C111.569 51.8265 111.595 51.6847 111.647 51.5522C111.701 51.4185 111.781 51.2972 111.883 51.1956C111.985 51.0939 112.107 51.0143 112.241 50.9616C112.373 50.9094 112.515 50.8848 112.658 50.889H125.985H125.986V51.139C126.203 51.1373 126.412 51.2213 126.567 51.3726L112.31 73.0354ZM112.31 73.0354V72.8648M112.31 73.0354V72.8648M127.067 51.9687C127.07 51.8236 127.043 51.6794 126.987 51.5456C126.93 51.4115 126.846 51.2909 126.74 51.1915L126.817 51.9657M127.067 51.9687C127.067 51.97 127.067 51.9713 127.067 51.9726L126.817 51.9657M127.067 51.9687C127.067 51.9674 127.067 51.9661 127.067 51.9648L126.817 51.9657M127.067 51.9687C127.067 52.11 127.038 52.2498 126.982 52.3796C126.926 52.5085 126.845 52.6248 126.744 52.7217M126.817 51.9657C126.817 52.0739 126.795 52.1811 126.752 52.2807C126.709 52.3802 126.646 52.4699 126.567 52.5443M126.744 52.7217C126.745 52.72 126.747 52.7184 126.748 52.7167L126.567 52.5443M126.744 52.7217C126.742 52.7232 126.74 52.7248 126.739 52.7264L126.567 52.5443M126.744 52.7217L126.567 52.5443M112.31 72.8648C112.353 72.8787 112.397 72.89 112.442 72.8984C112.651 72.9379 112.867 72.9155 113.064 72.834C113.261 72.7525 113.429 72.6154 113.549 72.4395C113.669 72.2635 113.734 72.0564 113.736 71.8438H113.736V71.8406V62.9905H122.655C122.801 62.994 122.945 62.967 123.079 62.9111C123.214 62.855 123.336 62.7711 123.436 62.6648C123.536 62.5608 123.614 62.4383 123.666 62.3042C123.718 62.1715 123.744 62.0301 123.741 61.8878C123.745 61.7461 123.719 61.6052 123.667 61.4735C123.613 61.3398 123.533 61.2184 123.431 61.1167C123.329 61.0151 123.207 60.9354 123.073 60.8825C122.94 60.83 122.798 60.8049 122.655 60.8085H113.736V53.0423H125.985H125.986L112.31 72.8648Z" fill="white" stroke="white" stroke-width="0.5"/>
<path d="M34.7649 72.6106L34.7695 72.6162L34.7745 72.6215C34.866 72.7203 34.9783 72.7976 35.1032 72.848C35.2246 72.897 35.3551 72.9194 35.4858 72.9138C35.7345 72.9201 35.9789 72.8461 36.1822 72.7025L36.1895 72.6974L36.1964 72.6917C36.3982 72.5265 36.5496 72.3082 36.6333 72.0617L43.8831 54.6994L51.2211 72.1795C51.2213 72.1799 51.2214 72.1803 51.2216 72.1807C51.3087 72.3933 51.4495 72.5797 51.6304 72.7218L51.637 72.727L51.6439 72.7318C51.824 72.8546 52.038 72.9182 52.2559 72.9137C52.5349 72.9203 52.8072 72.8271 53.0232 72.6506L53.0252 72.6489C53.1371 72.5555 53.2262 72.4376 53.2853 72.3044C53.3444 72.1711 53.372 72.0261 53.3659 71.8805L53.3659 71.8805L53.3656 71.8756C53.3517 71.6475 53.2979 71.4235 53.2068 71.2137C53.2066 71.2133 53.2064 71.2129 53.2062 71.2125L44.9001 51.5594C44.8226 51.3595 44.6889 51.1863 44.5149 51.0605L44.5091 51.0563L44.5031 51.0524C44.3247 50.9384 44.1157 50.8815 43.9042 50.8891C43.6915 50.8907 43.4841 50.9567 43.3098 51.0786C43.136 51.2002 43.0032 51.3715 42.9292 51.5701L34.645 71.2227C34.6449 71.223 34.6448 71.2232 34.6447 71.2234C34.5573 71.4273 34.513 71.647 34.5145 71.8688C34.504 72.1383 34.5932 72.4022 34.7649 72.6106Z" fill="white" stroke="white" stroke-width="0.5"/>
<path d="M18.344 42.4406L18.3513 42.4459L18.3589 42.4508C18.6489 42.634 18.9887 42.7232 19.3315 42.7064H26.6261C27.8711 42.7262 29.1003 42.4267 30.1953 41.8367L30.1957 41.8365C31.2349 41.274 32.0954 40.4336 32.6801 39.41L32.6809 39.4085C33.2855 38.3337 33.5931 37.1185 33.5723 35.8868C33.5706 34.3738 33.1637 33.0865 32.3387 32.0409L32.3387 32.0409L32.3373 32.0393C31.6218 31.1483 30.6742 30.4765 29.604 30.0929C30.345 29.6703 30.9815 29.0828 31.4617 28.3728C32.0743 27.4701 32.3945 26.4024 32.3792 25.3131C32.3926 24.2718 32.1007 23.2493 31.5393 22.3705L31.5387 22.3696C30.9787 21.5015 30.1974 20.7969 29.2745 20.3275C28.3216 19.8357 27.2624 19.5827 26.1891 19.5904H19.0636C18.7683 19.5815 18.4811 19.6886 18.264 19.8888L18.264 19.8887L18.258 19.8946C18.1488 20.0024 18.0637 20.1321 18.0084 20.2751C17.954 20.4158 17.9297 20.5663 17.937 20.7169V41.5792C17.9281 41.7438 17.96 41.908 18.0299 42.0574C18.101 42.2093 18.209 42.341 18.344 42.4406ZM20.1954 21.8361L26.2051 21.8361L26.2054 21.8361C27.4177 21.8349 28.3667 22.1507 29.0773 22.7609C29.7791 23.3634 30.1397 24.2054 30.1397 25.3208L30.1397 25.3216C30.1433 26.4765 29.7765 27.3928 29.0512 28.0946C28.3244 28.7977 27.3786 29.1565 26.1903 29.1566C26.1902 29.1566 26.1901 29.1566 26.19 29.1566L20.1954 29.1475V21.8361ZM26.6326 40.4797L26.6326 40.4797L26.6286 40.4797L20.184 40.4688V31.3833H26.6282V31.3834L26.6324 31.3833C27.4768 31.369 28.3109 31.5687 29.0561 31.9635C29.749 32.3344 30.3243 32.8897 30.7179 33.567L30.718 33.567C31.1283 34.2727 31.3382 35.0758 31.3253 35.8907L31.3251 35.8907L31.3253 35.8987C31.3385 36.7254 31.1287 37.5406 30.7174 38.2592C30.3237 38.9434 29.7482 39.5068 29.0538 39.8876C28.3121 40.2905 27.4777 40.4946 26.6326 40.4797Z" fill="white" stroke="white" stroke-width="0.5"/>
<path d="M79.5952 42.3761L79.5939 42.3775C79.494 42.4873 79.3709 42.5736 79.2337 42.6304C79.0976 42.6867 78.9509 42.7126 78.8037 42.7063M79.5952 42.3761L62.6766 42.4564C62.4453 42.4643 62.2203 42.3809 62.0506 42.2243C61.9701 42.1511 61.9063 42.0614 61.8638 41.9614C61.8212 41.8614 61.8008 41.7535 61.804 41.6449C61.8056 41.4262 61.8767 41.2135 62.007 41.0373M79.5952 42.3761C79.7821 42.1676 79.8829 41.8964 79.8773 41.6168C79.8831 41.3483 79.7903 41.0872 79.6168 40.8822L72.2789 30.8164M79.5952 42.3761L72.2789 30.8164M78.8037 42.7063C78.6495 42.7033 78.4969 42.6741 78.3525 42.62C78.1808 42.5682 78.0329 42.4573 77.9354 42.3068L70.7441 32.4006L63.5485 42.3127L63.5416 42.3222L63.5339 42.331C63.4263 42.4532 63.293 42.5501 63.1436 42.615C62.9966 42.6788 62.8375 42.71 62.6773 42.7065C62.3835 42.7145 62.0979 42.6078 61.8817 42.4086C61.7749 42.3113 61.6903 42.1922 61.6337 42.0593C61.5774 41.927 61.5502 41.7841 61.5541 41.6404M78.8037 42.7063C78.8049 42.7064 78.8061 42.7064 78.8073 42.7064L78.8115 42.4564L78.8 42.7062C78.8012 42.7062 78.8025 42.7063 78.8037 42.7063ZM61.5541 41.6404C61.5541 41.6395 61.5541 41.6385 61.5541 41.6376L61.804 41.6449L61.554 41.6431C61.554 41.6422 61.5541 41.6413 61.5541 41.6404ZM61.5541 41.6404C61.5566 41.3699 61.6446 41.1072 61.8054 40.8894L61.805 40.89L62.007 41.0373M62.007 41.0373L61.806 40.8886M62.007 41.0373L69.4978 30.7578M61.806 40.8886L78.988 21.203C79.0826 21.0772 79.1339 20.9242 79.134 20.767C79.1329 20.5322 79.0452 20.3058 78.8874 20.1311C78.8129 20.0396 78.7186 19.9659 78.6115 19.9156C78.5045 19.8653 78.3874 19.8396 78.269 19.8404M61.806 40.8886L69.1885 30.7577M61.806 40.8886L77.3369 20.0729M69.4978 30.7578L62.5419 21.203M69.4978 30.7578L69.2958 30.6106L69.1885 30.7577M69.4978 30.7578L69.2957 30.9049L69.1885 30.7577M62.5419 21.203C62.4047 21.0414 62.3324 20.835 62.339 20.6236M62.5419 21.203L62.3398 21.3501L62.345 21.3572M62.5419 21.203L62.3514 21.3648C62.3492 21.3623 62.3471 21.3598 62.345 21.3572M62.339 20.6236C62.3383 20.5207 62.3589 20.4187 62.3993 20.3239C62.4398 20.2291 62.4993 20.1436 62.5742 20.0726M62.339 20.6236L62.0891 20.6159C62.089 20.6174 62.089 20.619 62.0889 20.6205M62.339 20.6236L62.089 20.6252C62.089 20.6236 62.0889 20.622 62.0889 20.6205M62.5742 20.0726C62.65 19.9961 62.7408 19.9361 62.841 19.8961C62.9412 19.8562 63.0486 19.8372 63.1565 19.8404M62.5742 20.0726L62.4021 19.8912C62.4012 19.892 62.4003 19.8929 62.3994 19.8938M62.5742 20.0726L62.3967 19.8965C62.3976 19.8956 62.3985 19.8947 62.3994 19.8938M63.1565 19.8404C63.2992 19.8403 63.4399 19.8746 63.5664 19.9403C63.6929 20.0061 63.8016 20.1013 63.883 20.2179M63.1565 19.8404L63.1639 19.5905C63.1627 19.5905 63.1614 19.5905 63.1601 19.5904M63.1565 19.8404L63.1563 19.5904C63.1576 19.5904 63.1588 19.5904 63.1601 19.5904M63.883 20.2179L70.5761 29.4166L70.7302 29.2036M63.883 20.2179L64.088 20.0747C64.0875 20.074 64.087 20.0733 64.0865 20.0726M63.883 20.2179L64.0852 20.0708L64.0865 20.0726M70.7302 29.2036L70.885 29.4162L77.5406 20.2179M70.7302 29.2036L77.3369 20.0729M70.7302 29.2036L64.0865 20.0726M77.5406 20.2179C77.6223 20.101 77.7312 20.0056 77.8581 19.9399C77.985 19.8741 78.126 19.84 78.269 19.8404M77.5406 20.2179L77.3381 20.0713L77.3369 20.0729M77.5406 20.2179L77.3357 20.0747C77.3361 20.0741 77.3365 20.0735 77.3369 20.0729M78.269 19.8404L78.2698 19.5904C78.2694 19.5904 78.269 19.5904 78.2686 19.5904M78.269 19.8404L78.2673 19.5904C78.2677 19.5904 78.2681 19.5904 78.2686 19.5904M72.2789 30.8164L79.1877 21.3533C79.1881 21.3528 79.1885 21.3523 79.1888 21.3518C79.3153 21.1831 79.3838 20.9781 79.384 20.7673L79.384 20.7659C79.3826 20.4714 79.2734 20.1879 79.0772 19.9682C78.9795 19.8499 78.8568 19.7547 78.7179 19.6894C78.5774 19.6233 78.4238 19.5896 78.2686 19.5904M72.2789 30.8164L78.2686 19.5904M64.0865 20.0726C63.982 19.9238 63.8431 19.8024 63.6817 19.7185C63.5206 19.6348 63.3417 19.5909 63.1601 19.5904M63.1601 19.5904C63.0193 19.5868 62.8793 19.6118 62.7485 19.6639C62.6177 19.716 62.4989 19.7943 62.3994 19.8938M62.3994 19.8938C62.301 19.9878 62.2228 20.1007 62.1694 20.2258C62.1161 20.3506 62.0887 20.4848 62.0889 20.6205M62.0889 20.6205C62.0817 20.8891 62.1729 21.1508 62.345 21.3572M62.345 21.3572L69.1885 30.7577" fill="white" stroke="white" stroke-width="0.5"/>
<path d="M86.5037 41.4437L86.5066 41.4452C88.362 42.4621 90.4458 42.9953 92.564 42.9953C94.6822 42.9953 96.766 42.4621 98.6214 41.4452L98.6214 41.4452L98.6242 41.4437C100.414 40.4333 101.895 38.9597 102.911 37.1792L102.911 37.1791C103.96 35.3372 104.499 33.2505 104.47 31.1332C104.496 29.0258 103.958 26.9496 102.91 25.1176C101.895 23.3377 100.413 21.8647 98.6241 20.855L98.6241 20.855L98.6215 20.8536C96.7664 19.8355 94.6824 19.3016 92.564 19.3016C90.4455 19.3016 88.3615 19.8355 86.5064 20.8536L86.5064 20.8536L86.5038 20.8551C84.7151 21.8648 83.2345 23.3377 82.2194 25.1176C81.1708 26.9491 80.6317 29.0255 80.6576 31.1332C80.629 33.2508 81.1681 35.3377 82.2193 37.1791C83.2344 38.9596 84.7149 40.4332 86.5037 41.4437ZM97.579 39.4483L97.4936 39.495C95.9831 40.3205 94.2875 40.7533 92.564 40.7533C90.8409 40.7533 89.1457 40.3207 87.6355 39.4956C86.184 38.6811 84.9841 37.4872 84.1658 36.0432C83.3169 34.5452 82.8818 32.8504 82.9046 31.131L82.9047 31.131L82.9046 31.1247C82.8844 29.4152 83.3194 27.7308 84.1656 26.2427L84.1658 26.2424C84.9846 24.7988 86.1843 23.605 87.6355 22.7899C89.1461 21.966 90.8411 21.5341 92.564 21.5341C94.2868 21.5341 95.9818 21.966 97.4924 22.7899C98.9438 23.6055 100.144 24.8 100.962 26.2443L100.962 26.2446C101.809 27.7326 102.245 29.417 102.225 31.1267L102.225 31.1267L102.225 31.1327C102.247 32.8523 101.811 34.547 100.962 36.0451L100.962 36.0451C100.16 37.4602 98.9917 38.6352 97.579 39.4483Z" fill="white" stroke="white" stroke-width="0.5"/>
<path d="M108.948 42.3866L108.948 42.3866C108.841 42.281 108.758 42.1546 108.703 42.0154C108.648 41.8777 108.623 41.7303 108.627 41.5822V20.7144C108.623 20.5664 108.649 20.4191 108.703 20.2813C108.758 20.1422 108.841 20.0159 108.947 19.9101C109.053 19.8044 109.18 19.7215 109.319 19.6666C109.457 19.6125 109.603 19.5866 109.751 19.5903C109.911 19.5873 110.07 19.6187 110.217 19.6824C110.366 19.7472 110.499 19.8437 110.607 19.9653L110.612 19.9716L110.617 19.9782L124.956 38.5383V20.7144C124.951 20.5664 124.977 20.4191 125.032 20.2813C125.087 20.1422 125.17 20.0159 125.276 19.9101C125.382 19.8044 125.508 19.7215 125.648 19.6666C125.786 19.6122 125.933 19.5863 126.081 19.5904L108.948 42.3866ZM108.948 42.3866L108.951 42.3897C109.11 42.5427 109.311 42.6458 109.529 42.6865C109.746 42.7271 109.971 42.7036 110.175 42.6188C110.38 42.534 110.555 42.3915 110.679 42.2087C110.803 42.0259 110.871 41.8107 110.874 41.5898H110.874V41.5864V23.7583L108.948 42.3866Z" fill="white" stroke="white" stroke-width="0.5"/>
<path d="M42.1546 41.4437L42.1547 41.4437C44.0058 42.4879 46.1026 43.0233 48.2301 42.9952C50.3483 43.0209 52.4354 42.4854 54.2771 41.4436C56.0658 40.4331 57.5463 38.9596 58.5613 37.1792C59.6118 35.3374 60.1508 33.2507 60.1231 31.1332C60.1481 29.0256 59.609 26.9495 58.5614 25.1177C57.5462 23.3378 56.0656 21.8648 54.2769 20.8551L54.2769 20.855L54.2742 20.8536C52.4188 19.8355 50.3345 19.3016 48.2157 19.3016C46.097 19.3016 44.0127 19.8355 42.1573 20.8536L42.1573 20.8536L42.1546 20.8551C40.366 21.8648 38.8854 23.3376 37.8703 25.1174C36.8225 26.9493 36.2834 29.0255 36.3084 31.1332C36.2807 33.2507 36.8197 35.3374 37.8701 37.1792C38.8852 38.9596 40.3658 40.4332 42.1546 41.4437ZM53.1438 39.4983L53.1453 39.5028C51.6381 40.3232 49.9474 40.7533 48.229 40.7533C46.5056 40.7533 44.8102 40.3207 43.2997 39.4956C41.8491 38.6805 40.65 37.4866 39.8318 36.0432C38.9827 34.5451 38.547 32.8504 38.5687 31.1308L38.5688 31.1308L38.5687 31.1248C38.5491 29.4152 38.9848 27.7308 39.8316 26.2427L39.8317 26.2425C40.6505 24.7994 41.8494 23.6057 43.2997 22.7899C44.8106 21.966 46.5059 21.5341 48.229 21.5341C49.9521 21.5341 51.6473 21.966 53.1581 22.7898C54.6037 23.6079 55.7979 24.802 56.6128 26.244L56.6132 26.2446C57.46 27.7326 57.8957 29.4171 57.8761 31.1267L57.876 31.1267L57.8761 31.1327C57.8978 32.8523 57.4621 34.547 56.613 36.0451C55.7945 37.489 54.595 38.6831 53.1438 39.4983Z" fill="white" stroke="white" stroke-width="0.5"/>
<path d="M52.9799 27.6467C53.9465 27.6467 54.7322 26.8668 54.7322 25.9021C54.7322 24.9373 53.9465 24.1574 52.9799 24.1574C52.0133 24.1574 51.2275 24.9373 51.2275 25.9021C51.2275 26.8668 52.0133 27.6467 52.9799 27.6467Z" fill="white" stroke="white" stroke-width="0.5"/>
<path d="M2 75.0778V87.8549C2 88.4071 2.44772 88.8549 3 88.8549H12.2924" stroke="white" stroke-opacity="0.4" stroke-width="2.5"/>
<path d="M142 75.0778V87.8549C142 88.4071 141.552 88.8549 141 88.8549H131.708" stroke="white" stroke-opacity="0.4" stroke-width="2.5"/>
<path d="M142 15.9222V3.14516C142 2.59287 141.552 2.14516 141 2.14516H131.708" stroke="white" stroke-opacity="0.4" stroke-width="2.5"/>
<path d="M2 15.9222V3.14516C2 2.59287 2.44772 2.14516 3 2.14516H12.2924" stroke="white" stroke-opacity="0.4" stroke-width="2.5"/>
</svg>
